/* XPM */
static char * kbtin_xpm[] = {
"32 32 256 2",
"  	c None",
". 	c #020202",
"+ 	c #36160A",
"@ 	c #C6920E",
"# 	c #622212",
"$ 	c #863A1A",
"% 	c #8E6A06",
"& 	c #EAC20A",
"* 	c #D27616",
"= 	c #524A02",
"- 	c #7E6E02",
"; 	c #222222",
"> 	c #966E1A",
", 	c #DAB602",
"' 	c #BE722E",
") 	c #8A5A12",
"! 	c #7A5A0A",
"~ 	c #161616",
"{ 	c #362A2A",
"] 	c #864216",
"^ 	c #A2720E",
"/ 	c #260E0A",
"( 	c #865E1A",
"_ 	c #5A4606",
": 	c #B66A3A",
"< 	c #624A06",
"[ 	c #DA9A12",
"} 	c #5E2A12",
"| 	c #666666",
"1 	c #8A4E2A",
"2 	c #A68A0A",
"3 	c #464646",
"4 	c #0E0E0E",
"5 	c #8A5232",
"6 	c #423206",
"7 	c #DA8E12",
"8 	c #CA8226",
"9 	c #F6DA02",
"0 	c #626262",
"a 	c #5E5216",
"b 	c #A66E06",
"c 	c #BE5622",
"d 	c #E2AA12",
"e 	c #622A1E",
"f 	c #CA960E",
"g 	c #8E6206",
"h 	c #823616",
"i 	c #8A6A56",
"j 	c #663212",
"k 	c #2E1612",
"l 	c #763E16",
"m 	c #4E4E4E",
"n 	c #B66E36",
"o 	c #52322A",
"p 	c #AA7246",
"q 	c #0E0602",
"r 	c #B26A16",
"s 	c #D2921E",
"t 	c #7A7A7A",
"u 	c #565656",
"v 	c #461A0E",
"w 	c #867A02",
"x 	c #56362A",
"y 	c #CE7E1E",
"z 	c #EE9A12",
"A 	c #F2BE02",
"B 	c #B2820A",
"C 	c #363636",
"D 	c #AE6216",
"E 	c #E2B612",
"F 	c #C27E0E",
"G 	c #AA6646",
"H 	c #0A0A0A",
"I 	c #2A2A2A",
"J 	c #AA4E1E",
"K 	c #220E06",
"L 	c #F6D202",
"M 	c #62423A",
"N 	c #664E0A",
"O 	c #3A3A3A",
"P 	c #8E8206",
"Q 	c #9A725E",
"R 	c #221A16",
"S 	c #DEA212",
"T 	c #3E2A22",
"U 	c #824226",
"V 	c #BA8206",
"W 	c #9E6612",
"X 	c #D69612",
"Y 	c #EAB60A",
"Z 	c #6E3216",
"` 	c #EA7226",
" .	c #F2BA02",
"..	c #B6763A",
"+.	c #D2861A",
"@.	c #5E4A42",
"#.	c #1E1E1E",
"$.	c #F2C602",
"%.	c #EA8A12",
"&.	c #E29A0A",
"*.	c #060606",
"=.	c #DE9612",
"-.	c #9E7A06",
";.	c #E69E06",
">.	c #D68212",
",.	c #CA7622",
"'.	c #BE6E0E",
").	c #762E12",
"!.	c #3A1E0A",
"~.	c #5E5E5E",
"{.	c #923E1A",
"].	c #EEB202",
"^.	c #562212",
"/.	c #6E6E6E",
"(.	c #563A26",
"_.	c #E69206",
":.	c #763A16",
"<.	c #FAE602",
"[.	c #AE7A0A",
"}.	c #BE5E1E",
"|.	c #9E8606",
"1.	c #4E260E",
"2.	c #46220A",
"3.	c #523E36",
"4.	c #EAA202",
"5.	c #B28E0A",
"6.	c #824E36",
"7.	c #F2B212",
"8.	c #EAAE06",
"9.	c #725A16",
"0.	c #32120A",
"a.	c #EEA60A",
"b.	c #96461A",
"c.	c #6A3A2E",
"d.	c #C67A2A",
"e.	c #424242",
"f.	c #622E12",
"g.	c #C28A12",
"h.	c #B6760A",
"i.	c #8A6202",
"j.	c #3A160E",
"k.	c #A27E0A",
"l.	c #160E0A",
"m.	c #2E2222",
"n.	c #CA8A26",
"o.	c #323232",
"p.	c #9A6612",
"q.	c #262626",
"r.	c #C27216",
"s.	c #121212",
"t.	c #060202",
"u.	c #524646",
"v.	c #463E3A",
"w.	c #DAA206",
"x.	c #F6C60A",
"y.	c #5A5A5A",
"z.	c #E2A20E",
"A.	c #E28A16",
"B.	c #1E1612",
"C.	c #E6AA0E",
"D.	c #9A5E06",
"E.	c #422216",
"F.	c #4A2A22",
"G.	c #F2B20A",
"H.	c #B2623A",
"I.	c #A26E52",
"J.	c #46261E",
"K.	c #565202",
"L.	c #CA8622",
"M.	c #623A22",
"N.	c #2A1E1E",
"O.	c #7A621E",
"P.	c #462E2A",
"Q.	c #9E8616",
"R.	c #1A1A1A",
"S.	c #160A06",
"T.	c #E2960E",
"U.	c #EAAA06",
"V.	c #4A1A0E",
"W.	c #5E5652",
"X.	c #5A2A1E",
"Y.	c #8A620E",
"Z.	c #A6620A",
"`.	c #DA8612",
" +	c #3E3E3E",
".+	c #F6CA02",
"++	c #6A2616",
"@+	c #36221A",
"#+	c #6A6A6A",
"$+	c #825602",
"%+	c #AE6E0A",
"&+	c #5E3E32",
"*+	c #421A0E",
"=+	c #0E0A0A",
"-+	c #0A0602",
";+	c #BE820E",
">+	c #EA9212",
",+	c #E29616",
"'+	c #D67A12",
")+	c #AE860A",
"!+	c #5E3226",
"~+	c #C66E16",
"{+	c #CA8A16",
"]+	c #DA821A",
"^+	c #C2762E",
"/+	c #2E2E2E",
"(+	c #E2A206",
"_+	c #4A1E12",
":+	c #E6A206",
"<+	c #DE8E0E",
"[+	c #66361E",
"}+	c #BE622A",
"|+	c #965E12",
"1+	c #A26612",
"2+	c #F2BA0A",
"3+	c #CE7A1A",
"4+	c #362E2A",
"5+	c #26120A",
"6+	c #4A4A4A",
"7+	c #2A1A16",
"8+	c #7E7E7E",
"9+	c #261E1A",
"0+	c #727272",
"a+	c #C2760E",
"b+	c #BE8612",
"c+	c #E69610",
"d+	c #EEAA0A",
"e+	c #120E0A",
"f+	c #AE7242",
"g+	c #C6862A",
"h+	c #A66212",
"i+	c #361A0E",
"j+	c #7E7202",
"k+	c #A2760A",
"l+	c #86621E",
"m+	c #CA7A22",
"n+	c #866602",
"o+	c #E6A212",
"p+	c #E6A20A",
"q+	c #EEAA02",
"r+	c #723216",
"s+	c #E69A06",
"t+	c #963E1A",
"u+	c #120A06",
"v+	c #5A362E",
"w+	c #E6B60E",
"x+	c #C28212",
"y+	c #4E1E12",
"z+	c #D27A16",
"A+	c #3A2E2E",
"B+	c #2E1A16",
"C+	c #220E0A",
"D+	c #46220E",
"E+	c #523E3A",
"F+	c #EAAE0A",
"G+	c #622E16",
"                                I.I.I.I.I.I.I.                  ",
"        I.I.I.I.I.I.    I.I.............8 8 f+I.I.I.I.          ",
"      I.p ..x+b+n.p I.I.8 =.V Z.%+j+- g % h.;+g.E S p I.        ",
"      I...A 6 =+D p+p p c+2.. 6+t u . . . . . . . $ Y ..I.I.    ",
"        p .+S.~ E+z 7 p+_ . q.0 /.u . y.N.*+u+*+. t.) A =.I.    ",
"        ..G.q ~ u.$.Y _ . . / t+$ e.. #+r+S c 7.J.. s.S Y I.    ",
"        I.& 4 ~ t { i+. 0.++]+L x.9+. #+l 9 L $.c.. O 2 8 I.    ",
"I.I.I.I...3+I ~ 0+s.. 3 6.>+Y &.9 F.. #+y+` $.(+l.4 y.B +.....I.",
"p =.S d G.} I ~ C *.. O i d+=.m+a.M.. s.=+-+-+. *.| 8+U $.4.4...",
"p p+<.2+S v+I . *.u *.. y.B $.=.]+9+. C !.V.V.v . 4 /.M .+^+..I.",
"I.p q+7 ].k+I *.~.W.j.H 4 |+x.+.p+!+. #+a+& G.x.O.H I l $...I.  ",
"  I.+...7 z I ~ 0 r G.G+. l.}.$.p+1 . | {+p 7 ].F I ~ M x.g+I.  ",
"  I.I.I.p & 4 ~ @.& 8 x.+ . B.t+S @+. ~.w...+.].S ~ #.] 9 g+I.  ",
"        I.o+R.~ 6.p+p p+X . t.m.v 4+. y.N $+Z.-.D+. I 7 =.p I.  ",
"        I.Y q ~ Q...Q }+_.h+t.t.++; . . . . . . . e.l+=.I.I.    ",
"        I.s Z _+w...H.y ;.4.~+).r.{.R.E.f.e h # Z b.G.p         ",
"          G : ' ' ' z+n+j G.s+' G                               ",
"        G y c+= 5 k.q+K.. f <+G G G G                           ",
"        G z.:.. m 9. .1+k a.' G : ' ' ' n G G G G               ",
"      G ' (+[+.  +a a+( o F '+D.* F+b i.^ T.y ' G               ",
"      G T.w . . . *.3 q.q. +C 4 . -+t.4 . 5+> w.'               ",
"      G y G.&+. m &+++; q.T A+H t.^.h |.R . q.5.' G             ",
"        G T.:.. m W ] q.q.u v.4 H c 7.S m . x 2+' G             ",
"        G L.Y.. m |.! q.; 3.Y.4 #.>.<+z  +.  +@ d.G             ",
"        G ' >..  +a.P q.; :.S 4 C '.,.G.o.. y.p.T.' G           ",
"          G ,+.  +! < q.#.P F 4 C [.:+ .P.. ~.p.A <+G           ",
"          G C.. m ~.I ; ~ } (.4 e.X.7.x.X..  +[ q+' G           ",
"          : >.. /+u T s.e+C+B+*.#.J x.A )+. 7+G.`.: G           ",
"          ' 7 *.. *.0.H v J f K / a.s+<+, 1.J 7.:+y G           ",
"          : 8.>.%+%.%.w+z.z.T.,+A.y ' y :+].U.z.<+' G           ",
"          G n y y ' ' G G G G G G G G n ' ' n G G G G           ",
"            G : : G                                             "};
